<svg xmlns="http://www.w3.org/2000/svg" width="81.575" height="72.575" viewBox="0 0 81.575 72.575"><g transform="translate(-1245.213 -1248.712)"><rect width="51" height="51" transform="translate(1261 1259)" fill="#fff"/><path d="M58.032,72.575h-34.5a6.453,6.453,0,0,1-5.468-3.163L.819,39.45a6.49,6.49,0,0,1,0-6.325L18.067,3.163A6.454,6.454,0,0,1,23.535,0h34.5A6.451,6.451,0,0,1,63.5,3.163L80.748,33.125a6.488,6.488,0,0,1,0,6.325L63.5,69.412A6.45,6.45,0,0,1,58.032,72.575ZM24.914,36.766a3.946,3.946,0,0,0,0,7.892H29.83a8.9,8.9,0,0,0-.74,2.31,9.866,9.866,0,0,0-.028,3.15,6.576,6.576,0,0,0-5.376,6.467A1.317,1.317,0,0,0,25,57.9H54.03a9.219,9.219,0,0,0,9.208-9.209V38.082a1.316,1.316,0,0,1,.707-1.166,3.736,3.736,0,0,0,1.921-3.252,3.982,3.982,0,0,0-1.976-3.572,3.881,3.881,0,0,0-1.965-.544,3.779,3.779,0,0,0-1.83.477,9.226,9.226,0,0,0-4.749,8.056V48.693a1.317,1.317,0,0,1-1.315,1.316H50.546a15.745,15.745,0,0,0,2.168-7.98A16.014,16.014,0,0,0,43.8,27.767a10.6,10.6,0,0,0,.692-2.2A5.251,5.251,0,0,0,42.1,15.63a4.8,4.8,0,0,0-.867.08,10.463,10.463,0,0,0-14.053,0,4.8,4.8,0,0,0-.866-.08,5.313,5.313,0,0,0-5.35,5.262,5.214,5.214,0,0,0,2.875,4.671,10.586,10.586,0,0,0,7.736,8.152V35.45a1.317,1.317,0,0,1-1.315,1.316ZM54.03,55.27H45.562a16.226,16.226,0,0,0,3.05-2.631H54.03a3.951,3.951,0,0,0,3.946-3.946V38.082a6.593,6.593,0,0,1,3.4-5.756,1.118,1.118,0,0,1,.548-.145,1.274,1.274,0,0,1,.633.179,1.377,1.377,0,0,1,.683,1.236,1.138,1.138,0,0,1-.521.994,3.941,3.941,0,0,0-2.11,3.493V48.693A6.585,6.585,0,0,1,54.03,55.27Zm-17.189,0h-10.3a3.958,3.958,0,0,1,3.721-2.631h.449a1.316,1.316,0,0,0,1.24-1.754,6.991,6.991,0,0,1-.271-3.468,6.665,6.665,0,0,1,5.431-5.31,1.316,1.316,0,0,0,1.1-1.5,1.313,1.313,0,0,0-1.5-1.1,9.21,9.21,0,0,0-5,2.521h-6.8a1.315,1.315,0,1,1,0-2.631h5.35A3.951,3.951,0,0,0,34.21,35.45v-1.4a10.413,10.413,0,0,0,8.229-4.015,13.239,13.239,0,0,1-5.6,25.238ZM34.21,31.416a7.925,7.925,0,0,1-7.879-6.943,1.32,1.32,0,0,0-.9-1.094A2.616,2.616,0,0,1,23.6,20.893a2.712,2.712,0,0,1,2.719-2.631,2.6,2.6,0,0,1,.833.153,1.315,1.315,0,0,0,1.37-.337,7.836,7.836,0,0,1,11.38,0,1.315,1.315,0,0,0,1.37.337,2.6,2.6,0,0,1,.833-.153,2.62,2.62,0,0,1,.8,5.118,1.32,1.32,0,0,0-.9,1.094A7.875,7.875,0,0,1,34.21,31.416ZM31.578,18.262a3.951,3.951,0,0,0-3.947,3.946,3.821,3.821,0,0,0,1.323,2.9,5.262,5.262,0,0,0,10.51,0,3.82,3.82,0,0,0,1.322-2.9,3.951,3.951,0,0,0-3.947-3.946,3.833,3.833,0,0,0-2.631,1.043A3.837,3.837,0,0,0,31.578,18.262ZM34.21,27.47a2.637,2.637,0,0,1-2.632-2.622c0-.018,0-.04.009-.067.006-.045.015-.106.024-.193a1.318,1.318,0,0,0-.658-1.269,1.291,1.291,0,0,1-.689-1.111,1.316,1.316,0,0,1,1.315-1.315,1.291,1.291,0,0,1,1.111.689,1.317,1.317,0,0,0,1.141.664c.042,0,.085,0,.128-.006.148-.014.2-.024.229-.028l.023,0,.022,0c.026,0,.08.014.228.028.042,0,.085.006.128.006a1.318,1.318,0,0,0,1.142-.664,1.288,1.288,0,0,1,1.111-.689,1.317,1.317,0,0,1,1.316,1.315,1.292,1.292,0,0,1-.69,1.111,1.318,1.318,0,0,0-.658,1.269c.008.085.017.143.023.186s.008.054.009.074A2.636,2.636,0,0,1,34.21,27.47Z" transform="translate(1245.216 1248.712)" fill="#1a91cd"/></g></svg>