<svg xmlns="http://www.w3.org/2000/svg" xmlns:xlink="http://www.w3.org/1999/xlink" width="203" height="195" viewBox="0 0 203 195"><defs><style>.a{fill:#d92542;}.b{clip-path:url(#d);}.c{fill:url(#a);}.d{clip-path:url(#b);}.e{fill:#dc293e;}.f,.g{fill:#fff;}.f{font-size:42px;font-family:Roboto-Light, Roboto;font-weight:300;}</style><linearGradient id="a" x1="0.5" x2="0.5" y2="1" gradientUnits="objectBoundingBox"><stop offset="0" stop-color="#fc3f39"/><stop offset="1" stop-color="#fc2850"/></linearGradient><clipPath id="b"><path class="a" d="M1339.206,1990.666h18.5l14.788-32.124,30.367-51.566h16.47l167.75,161.416-136.115,116.47Z" transform="translate(-1278 -1882)"/></clipPath><clipPath id="d"><rect width="203" height="195"/></clipPath></defs><g id="c" class="b"><rect class="c" width="203" height="195" rx="20"/><g class="d"><path class="e" d="M20,0H183a20,20,0,0,1,20,20V210a20,20,0,0,1-20,20H20A20,20,0,0,1,0,210V20A20,20,0,0,1,20,0Z" transform="translate(0 -36)"/></g><text class="f" transform="translate(51 163)"><tspan x="0" y="0">latino</tspan></text><g transform="translate(-1373.46 -1420.651)"><path class="g" d="M63.615,86.1,40.5,43.965V41.383L63.717.046,79.76,0s.97.08,1.192.709a3.333,3.333,0,0,1-.3,1.808L57.537,42.938,80.509,82.131a3.543,3.543,0,0,1,.163,2.6c-.551.993-2.367,1.375-2.367,1.375ZM2.7,86.1S.887,85.722.336,84.728a3.544,3.544,0,0,1,.162-2.6L23.47,42.938.356,2.516A3.337,3.337,0,0,1,.055.709C.278.08,1.248,0,1.248,0L17.291.046,40.5,41.383v2.582L17.392,86.1Z" transform="translate(1434.46 1445.547)"/></g></g></svg>