<svg xmlns="http://www.w3.org/2000/svg" width="330.574" height="603.567" viewBox="0 0 330.574 603.567"><g transform="translate(-1986.705 -3799)"><g transform="translate(1943.663 3766.503)"><path d="M363.274,301.669a5.405,5.405,0,1,0-8.841,6.221l13.529,19.232a5.406,5.406,0,0,1-8.847,6.216L326.606,287.13a9.02,9.02,0,0,0-7.366-3.825h0a9.021,9.021,0,0,0-7.365,3.821l-32.549,46.208a5.408,5.408,0,1,1-8.849-6.219l38.5-54.663a9.031,9.031,0,0,0,0-10.372l-32.573-46.308a5.407,5.407,0,1,1,8.844-6.221l26.633,37.861a9.02,9.02,0,0,0,7.366,3.826h0a9.019,9.019,0,0,0,7.366-3.821L353.3,209.546a5.407,5.407,0,0,1,8.841,6.228l-32.624,46.317a9.03,9.03,0,0,0,0,10.372l10.4,14.785a5.405,5.405,0,1,0,8.841-6.221l-9.671-13.747L370.975,222a16.219,16.219,0,0,0-26.518-18.68l-25.2,35.777-25.161-35.768a16.218,16.218,0,0,0-26.53,18.661l31.845,45.271-37.774,53.626a16.219,16.219,0,0,0,26.518,18.681l31.081-44.124,31.036,44.115A16.218,16.218,0,0,0,376.8,320.9Z" transform="translate(-48.409 -0.003)" fill="#00ee8a"/><path d="M183.241,196.441a16.235,16.235,0,0,0-16.217,16.217v80.814c0,5.519-1.573,11.952-13.233,17.825a26.611,26.611,0,0,1-12.106,2.711,23.406,23.406,0,0,1-12.961-3.647c-9.125-5.829-10.957-10.751-10.957-16.8V255.945a5.406,5.406,0,0,0-10.811,0v37.611c0,11.022,4.769,18.773,15.948,25.915a33.964,33.964,0,0,0,18.827,5.347,37.26,37.26,0,0,0,16.924-3.866c12.907-6.5,19.181-15.49,19.181-27.481V212.658a5.406,5.406,0,1,1,10.811,0v80.814c0,16.244-8.455,28.739-25.13,37.136a47.967,47.967,0,0,1-21.786,5.021h-.075a45,45,0,0,1-24.574-7.048c-14.285-9.127-20.939-20.256-20.939-35.025v-80.9a5.406,5.406,0,1,1,10.811,0v18.061a5.406,5.406,0,0,0,10.811,0V212.658a16.217,16.217,0,1,0-32.434,0v80.9c0,18.294,8.724,33.143,25.93,44.136a55.651,55.651,0,0,0,30.387,8.749h.082a58.673,58.673,0,0,0,26.649-6.177c25.687-12.937,31.079-32.586,31.079-46.792V212.658a16.234,16.234,0,0,0-16.216-16.217Z" fill="#00ee8a"/></g><g transform="translate(-258.449 254.503)"><g transform="translate(2468.29 3888.553)"><g transform="translate(-315.803 -106.539)" fill="none" stroke-linecap="round"><path d="M331.429,106.539A15.626,15.626,0,0,0,315.8,122.165V240.912a15.626,15.626,0,0,0,31.251,0V122.165A15.626,15.626,0,0,0,331.429,106.539Z" stroke="none"/><path d="M 331.4286193847656 116.5390014648438 C 328.32666015625 116.5390014648438 325.8030090332031 119.0626373291016 325.8030090332031 122.1646423339844 L 325.8030090332031 240.9123229980469 C 325.8030090332031 244.0142822265625 328.32666015625 246.5379333496094 331.4286193847656 246.5379333496094 C 334.5306091308594 246.5379333496094 337.0542907714844 244.0142822265625 337.0542907714844 240.9123229980469 L 337.0542907714844 122.1646423339844 C 337.0542907714844 119.0626373291016 334.5306091308594 116.5390014648438 331.4286193847656 116.5390014648438 M 331.4286193847656 106.5390014648438 C 340.0581665039062 106.5390014648438 347.0542907714844 113.5351104736328 347.0542907714844 122.1646423339844 L 347.0542907714844 240.9123229980469 C 347.0542907714844 249.5418395996094 340.0581665039062 256.5379333496094 331.4286193847656 256.5379333496094 C 322.7991333007812 256.5379333496094 315.8030090332031 249.5418395996094 315.8030090332031 240.9123229980469 L 315.8030090332031 122.1646423339844 C 315.8030090332031 113.5351104736328 322.7991333007812 106.5390014648438 331.4286193847656 106.5390014648438 Z" stroke="none" fill="#ff6c6c"/></g></g><path d="M183.241,196.441a16.235,16.235,0,0,0-16.217,16.217v80.814c0,5.519-1.573,11.952-13.233,17.825a26.611,26.611,0,0,1-12.106,2.711,23.406,23.406,0,0,1-12.961-3.647c-9.125-5.829-10.957-10.751-10.957-16.8V255.945a5.406,5.406,0,0,0-10.811,0v37.611c0,11.022,4.769,18.773,15.948,25.915a33.964,33.964,0,0,0,18.827,5.347,37.26,37.26,0,0,0,16.924-3.866c12.907-6.5,19.181-15.49,19.181-27.481V212.658a5.406,5.406,0,1,1,10.811,0v80.814c0,16.244-8.455,28.739-25.13,37.136a47.967,47.967,0,0,1-21.786,5.021h-.075a45,45,0,0,1-24.574-7.048c-14.285-9.127-20.939-20.256-20.939-35.025v-80.9a5.406,5.406,0,1,1,10.811,0v18.061a5.406,5.406,0,0,0,10.811,0V212.658a16.217,16.217,0,1,0-32.434,0v80.9c0,18.294,8.724,33.143,25.93,44.136a55.651,55.651,0,0,0,30.387,8.749h.082a58.673,58.673,0,0,0,26.649-6.177c25.687-12.937,31.079-32.586,31.079-46.792V212.658a16.234,16.234,0,0,0-16.216-16.217Z" transform="translate(2214.113 3692.112)" fill="#ff6c6c"/></g><g transform="translate(1953.786 3791.752)"><path d="M363.493,545.407V72.657A65.494,65.494,0,0,0,298.085,7.248H98.328A65.494,65.494,0,0,0,32.919,72.657v472.75a65.494,65.494,0,0,0,65.409,65.409H298.074A65.494,65.494,0,0,0,363.493,545.407Zm-65.409,46.8H98.328a46.855,46.855,0,0,1-46.8-46.8V72.657a46.855,46.855,0,0,1,46.8-46.8H298.074a46.855,46.855,0,0,1,46.8,46.8v472.75a46.855,46.855,0,0,1-46.8,46.807Z" transform="translate(0 0)"/><path d="M66.056,33.2h58.5a9.306,9.306,0,0,0,0-18.612h-58.5a9.306,9.306,0,1,0,0,18.612Z" transform="translate(102.897 31.671)"/></g></g></svg>