<svg xmlns="http://www.w3.org/2000/svg" width="319.059" height="512" viewBox="0 0 319.059 512"><g transform="translate(-0.001)"><path d="M308.66,73.613V30.449a20.3,20.3,0,0,0-20.3-20.3H30.2a20.3,20.3,0,0,0-20.3,20.3V73.613" fill="#ece9e8"/><path d="M200.8,73.652H9.907V432.41H308.661V73.652H280.653" fill="#8cbcff"/><path d="M114.359,501.77h174a20.3,20.3,0,0,0,20.3-20.3V432.411H9.906v49.059a20.3,20.3,0,0,0,20.3,20.3h4.648" fill="#ece9e8"/><path d="M52.035,110.785h51.9v51.9h-51.9Zm0,0" fill="#00ee8a"/><path d="M133.578,110.785h51.9v51.9h-51.9Zm0,0" fill="#ff6c6c"/><path d="M215.121,110.785h51.9v51.9h-51.9Zm0,0" fill="#ffde91"/><path d="M52.035,189.957h51.9v51.9h-51.9Zm0,0" fill="#ff6c6c"/><path d="M133.578,189.957h51.9v51.9h-51.9Zm0,0" fill="#bfb3af"/><path d="M215.121,189.957h51.9v51.9h-51.9Zm0,0" fill="#ff6c6c"/><path d="M52.035,269.125h51.9v51.9h-51.9Zm0,0" fill="#00ee8a"/><path d="M133.578,269.125h51.9v51.9h-51.9Zm0,0" fill="#00ee8a"/><path d="M215.121,269.125h51.9v51.9h-51.9Zm0,0" fill="#bfb3af"/><path d="M52.035,348.3h51.9v51.9h-51.9Zm0,0" fill="#ff6c6c"/><path d="M133.578,348.3h51.9v51.9h-51.9Zm0,0" fill="#ffde91"/><path d="M215.121,348.3h51.9v51.9h-51.9Zm0,0" fill="#ff6c6c"/><path d="M319.059,30.449A30.485,30.485,0,0,0,288.606,0H30.45A30.485,30.485,0,0,0,0,30.449V481.468A30.485,30.485,0,0,0,30.45,511.918H35.1a10.15,10.15,0,1,0,0-20.3H30.45A10.158,10.158,0,0,1,20.3,481.469V442.562H298.758v38.906a10.161,10.161,0,0,1-10.152,10.148h-174a10.15,10.15,0,0,0,0,20.3h174a30.485,30.485,0,0,0,30.453-30.449V73.652c0-.008,0-.012,0-.02a.169.169,0,0,0,0-.02ZM20.3,422.262V83.8h180.75a10.15,10.15,0,0,0,0-20.3H20.3V30.45A10.158,10.158,0,0,1,30.449,20.3H288.605A10.161,10.161,0,0,1,298.758,30.45V63.5H280.9a10.15,10.15,0,1,0,0,20.3h17.859V422.262Zm0,0"/><path d="M199.109,477.242a10.15,10.15,0,0,0,0-20.3H119.937a10.15,10.15,0,0,0,0,20.3Zm0,0"/><path d="M178.133,33.855H140.914a10.15,10.15,0,0,0,0,20.3h37.219a10.15,10.15,0,0,0,0-20.3Zm0,0"/><path d="M104.18,100.637h-51.9a10.148,10.148,0,0,0-10.148,10.148v51.9a10.151,10.151,0,0,0,10.148,10.152h51.9a10.154,10.154,0,0,0,10.152-10.152v-51.9a10.151,10.151,0,0,0-10.152-10.148Zm-10.148,51.9h-31.6v-31.6h31.6Zm0,0"/><path d="M185.723,100.637h-51.9a10.148,10.148,0,0,0-10.148,10.148v51.9a10.151,10.151,0,0,0,10.148,10.152h51.9a10.151,10.151,0,0,0,10.148-10.152v-51.9a10.148,10.148,0,0,0-10.148-10.148Zm-10.148,51.9h-31.6v-31.6h31.6Zm0,0"/><path d="M267.266,100.637h-51.9a10.148,10.148,0,0,0-10.148,10.148v51.9a10.151,10.151,0,0,0,10.148,10.152h51.9a10.151,10.151,0,0,0,10.148-10.152v-51.9a10.148,10.148,0,0,0-10.148-10.148Zm-10.148,51.9h-31.6v-31.6h31.6Zm0,0"/><path d="M104.18,179.8h-51.9a10.151,10.151,0,0,0-10.148,10.152v51.9A10.148,10.148,0,0,0,52.282,252h51.9a10.151,10.151,0,0,0,10.152-10.148v-51.9A10.154,10.154,0,0,0,104.18,179.8ZM94.032,231.7h-31.6v-31.6h31.6Zm0,0"/><path d="M185.723,179.8h-51.9a10.151,10.151,0,0,0-10.148,10.152v51.9A10.148,10.148,0,0,0,133.825,252h51.9a10.148,10.148,0,0,0,10.148-10.148v-51.9A10.151,10.151,0,0,0,185.723,179.8Zm-10.148,51.9h-31.6v-31.6h31.6Zm0,0"/><path d="M267.266,179.8h-51.9a10.151,10.151,0,0,0-10.148,10.152v51.9A10.148,10.148,0,0,0,215.368,252h51.9a10.148,10.148,0,0,0,10.148-10.148v-51.9A10.151,10.151,0,0,0,267.266,179.8Zm-10.148,51.9h-31.6v-31.6h31.6Zm0,0"/><path d="M104.18,258.977h-51.9a10.148,10.148,0,0,0-10.148,10.148v51.9a10.151,10.151,0,0,0,10.148,10.152h51.9a10.154,10.154,0,0,0,10.152-10.152v-51.9A10.151,10.151,0,0,0,104.18,258.977Zm-10.148,51.9h-31.6v-31.6h31.6Zm0,0"/><path d="M185.723,258.977h-51.9a10.148,10.148,0,0,0-10.148,10.148v51.9a10.151,10.151,0,0,0,10.148,10.152h51.9a10.151,10.151,0,0,0,10.148-10.152v-51.9a10.148,10.148,0,0,0-10.148-10.148Zm-10.148,51.9h-31.6v-31.6h31.6Zm0,0"/><path d="M267.266,258.977h-51.9a10.148,10.148,0,0,0-10.148,10.148v51.9a10.151,10.151,0,0,0,10.148,10.152h51.9a10.151,10.151,0,0,0,10.148-10.152v-51.9A10.148,10.148,0,0,0,267.266,258.977Zm-10.148,51.9h-31.6v-31.6h31.6Zm0,0"/><path d="M104.18,338.145h-51.9A10.151,10.151,0,0,0,42.133,348.3v51.9a10.148,10.148,0,0,0,10.148,10.148h51.9A10.151,10.151,0,0,0,114.332,400.2V348.3A10.154,10.154,0,0,0,104.18,338.145Zm-10.148,51.9h-31.6v-31.6h31.6Zm0,0"/><path d="M185.723,338.145h-51.9A10.151,10.151,0,0,0,123.676,348.3v51.9a10.148,10.148,0,0,0,10.148,10.148h51.9A10.148,10.148,0,0,0,195.871,400.2V348.3a10.151,10.151,0,0,0-10.148-10.152Zm-10.148,51.9h-31.6v-31.6h31.6Zm0,0"/><path d="M267.266,338.145h-51.9A10.151,10.151,0,0,0,205.219,348.3v51.9a10.148,10.148,0,0,0,10.148,10.148h51.9A10.148,10.148,0,0,0,277.414,400.2V348.3A10.151,10.151,0,0,0,267.266,338.145Zm-10.148,51.9h-31.6v-31.6h31.6Zm0,0"/><path d="M231.652,77.5a10.15,10.15,0,0,0,18.813-7.625l-.062-.152a10.151,10.151,0,1,0-18.816,7.621Zm0,0"/><path d="M84.367,497.883A10.151,10.151,0,1,0,65.551,505.5l.063.156a10.15,10.15,0,1,0,18.813-7.625Zm0,0"/></g></svg>