<svg xmlns="http://www.w3.org/2000/svg" width="299.752" height="396.399" viewBox="0 0 299.752 396.399"><defs><style>.a{fill:#f1bd12;stroke:#000;stroke-width:15px;}</style></defs><g transform="translate(-40.824 7.5)"><path class="a" d="M243.838,134.9l-63.661-25.147V376.3a5.1,5.1,0,0,1-5.1,5.094H124.059a5.1,5.1,0,0,1-5.1-5.094V109.754L55.306,134.9a5.1,5.1,0,0,1-5.923-7.856L145.521,1.991a5.111,5.111,0,0,1,8.1,0L249.75,127.046a5.1,5.1,0,0,1-5.912,7.855Zm89.238,172.068H288.952V262.842h-29.42v44.127H215.408v29.417h44.124v44.126h29.42V336.386h44.124Z"/></g></svg>