<svg xmlns="http://www.w3.org/2000/svg" xmlns:xlink="http://www.w3.org/1999/xlink" width="116" height="121" viewBox="0 0 116 121"><defs><filter id="a" x="0" y="0" width="116" height="121" filterUnits="userSpaceOnUse"><feOffset dy="3" input="SourceAlpha"/><feGaussianBlur stdDeviation="3" result="b"/><feFlood flood-opacity="0.702"/><feComposite operator="in" in2="b"/><feComposite in="SourceGraphic"/></filter></defs><g transform="translate(-1576 -507)"><g transform="matrix(1, 0, 0, 1, 1576, 507)" filter="url(#a)"><g transform="translate(9 6)" fill="#133b7f" stroke="#a2d0f9" stroke-width="3"><rect width="98" height="103" rx="20" stroke="none"/><rect x="1.5" y="1.5" width="95" height="100" rx="18.5" fill="none"/></g></g><g transform="translate(1602.809 537.748)"><path d="M18,0a4.95,4.95,0,0,0-4.182,2.419L.626,25.333a4.985,4.985,0,0,0,0,4.838L13.817,53.086A4.949,4.949,0,0,0,18,55.5H44.382a4.949,4.949,0,0,0,4.182-2.419L61.755,30.171a4.985,4.985,0,0,0,0-4.838L48.564,2.419A4.948,4.948,0,0,0,44.382,0Zm.239,13.405a.574.574,0,0,1,.111,0H22.9a.6.6,0,0,1,.5.3l7.72,13.756a.594.594,0,0,1,.073.222.59.59,0,0,1,.073-.222l7.7-13.756a.6.6,0,0,1,.516-.3h4.551a.622.622,0,0,1,.516.868L37.012,27.752l7.535,13.461a.623.623,0,0,1-.516.886H39.481a.6.6,0,0,1-.516-.314l-7.7-13.756a.6.6,0,0,1-.073-.222.6.6,0,0,1-.073.222L23.4,41.786a.6.6,0,0,1-.5.314H18.35a.623.623,0,0,1-.516-.886l7.535-13.461L17.834,14.273a.62.62,0,0,1,.405-.868Z" transform="translate(0)" fill="#a2d0f9"/></g><path d="M452.869,69.557H451.9V17.948h.974a.974.974,0,0,0,0-1.948h-3.9a.974.974,0,0,0,0,1.948h.974v51.61h-.974a.974.974,0,0,0,0,1.948h3.9a.974.974,0,0,0,0-1.948Z" transform="translate(1148.184 520.748)" fill="#a2d0f9"/><path d="M453.472,76.193h-1.094v-58h1.094a1.094,1.094,0,0,0,0-2.189h-4.378a1.094,1.094,0,0,0,0,2.189h1.094v58h-1.094a1.094,1.094,0,0,0,0,2.189h4.378a1.094,1.094,0,0,0,0-2.189Z" transform="translate(1681.191 80.217) rotate(90)" fill="#a2d0f9"/></g></svg>